<?xml version="1.0" encoding="UTF-8" standalone="no" ?>
<!DOCTYPE svg PUBLIC "-//W3C//DTD SVG 1.1//EN" "http://www.w3.org/Graphics/SVG/1.1/DTD/svg11.dtd">
<svg xmlns="http://www.w3.org/2000/svg" xmlns:xlink="http://www.w3.org/1999/xlink" version="1.1" width="1280" height="1024" viewBox="0 0 1280 1024" xml:space="preserve">
<desc>Created with Fabric.js 5.3.0</desc>
<defs>
</defs>
<g transform="matrix(1 0 0 1 640 512)" id="background-logo"  >
<rect style="stroke: none; stroke-width: 0; stroke-dasharray: none; stroke-linecap: butt; stroke-dashoffset: 0; stroke-linejoin: miter; stroke-miterlimit: 4; fill: rgb(255,255,255); fill-opacity: 0; fill-rule: nonzero; opacity: 1;"  paint-order="stroke"  x="-640" y="-512" rx="0" ry="0" width="1280" height="1024" />
</g>
<g transform="matrix(1.9211538461538462 0 0 1.9211538461538462 640 429.65462379493556)" id="logo-logo"  >
<g style=""  paint-order="stroke"   >
		<g transform="matrix(-0.9005738571917116 0.4588652993885385 0.45886529938853815 0.9005738571917111 -35.59069839246172 -20.308913636381533)"  >
<g style=""  paint-order="stroke"   >
		<g transform="matrix(1 0 0 1 0 0)"  >
<linearGradient id="SVGID_41_342763" gradientUnits="userSpaceOnUse" gradientTransform="matrix(1 0 0 1 0 4.6968171574235e-7)"  x1="125.00000000000003" y1="0" x2="124.99999999999997" y2="61.72166953031828">
<stop offset="0%" style="stop-color:rgb(107,103,103);stop-opacity: 1"/>
<stop offset="100%" style="stop-color:rgb(0,115,230);stop-opacity: 1"/>
</linearGradient>
<path style="stroke: none; stroke-width: 1; stroke-dasharray: none; stroke-linecap: butt; stroke-dashoffset: 0; stroke-linejoin: miter; stroke-miterlimit: 4; fill: url(#SVGID_41_342763); fill-rule: nonzero; opacity: 1;"  paint-order="stroke"  transform=" translate(-125, -30.860835234840856)" d="M 249.99706 61.65324 C 249.88449 61.481899999999996 249.76466 61.31578 249.65111000000002 61.145149999999994 C 249.6357 61.10988999999999 249.61957 61.074169999999995 249.60409 61.03883999999999 C 249.73436 61.24491999999999 249.87044 61.451789999999995 250 61.65767999999999 C 249.7915 61.27051999999999 249.57837 60.88493999999999 249.36536 60.49927999999999 C 236.81018 32.0476 212.68147 -2.07744 178.41695 0.09903 C 164.98599000000002 0.9549700000000001 153.45202 8.67726 143.60216000000003 17.21513 C 131.77421000000004 26.750899999999998 118.50441000000002 41.5246 102.15361000000003 41.19719 C 92.21776000000003 40.71287 83.65540000000003 35.01379 75.55373000000003 29.87511 C 70.09058000000003 26.36335 64.65812000000003 22.735219999999998 58.67277000000003 20.04596 C 52.702380000000026 17.357020000000002 45.82192000000003 15.80122 39.284280000000024 17.857020000000002 C 20.64647 23.85235 7.85243 44.70183 0.00098 61.65958 C 0.00085 61.65978 0.00078 61.660039999999995 0.00065 61.66023 C 0.0007199999999999999 61.66016 0.0007199999999999999 61.6601 0.00078 61.66003 C 0.0005200000000000001 61.66055 0.00026000000000000003 61.661139999999996 0 61.66166 C 0.00072 61.660219999999995 0.0015 61.65885 0.00222 61.657419999999995 C 0.00222 61.657349999999994 0.0022900000000000004 61.657349999999994 0.0022900000000000004 61.657289999999996 C 0.0026200000000000004 61.656699999999994 0.0030100000000000005 61.65618 0.0033300000000000005 61.65559 C 0.0038500000000000006 61.65481 0.0043100000000000005 61.654019999999996 0.004830000000000001 61.65324 C 0.005290000000000001 61.65259 0.005810000000000001 61.65193 0.006270000000000001 61.65128 C 0.007050000000000002 61.65024 0.0079 61.64926 0.008690000000000002 61.64821 C 0.009540000000000002 61.647169999999996 0.010520000000000002 61.646319999999996 0.011370000000000002 61.64527 C 0.012680000000000002 61.64396 0.013920000000000002 61.64279 0.015220000000000001 61.641479999999994 C 0.01653 61.64037 0.01803 61.63925999999999 0.01933 61.638149999999996 C 17.98692 49.38798 40.55121 43.12976 61.697739999999996 47.34609 C 77.54312 49.714079999999996 93.46288 54.39228 109.74726999999999 52.82459 C 115.13969999999999 52.33818 120.48864999999998 51.40898 125.75151999999999 50.164970000000004 C 136.28008999999997 47.681990000000006 146.54557 44.29527 157.08131999999998 42.25495 C 178.13786999999996 38.26781 200.28365999999997 39.83916 220.85091999999997 46.75697 C 230.98990999999998 50.070420000000006 240.82383 55.33265 249.55759999999998 61.35221 C 249.67336999999998 61.4768 249.79404999999997 61.59636 249.90917 61.721669999999996 C 249.90813 61.72042999999999 249.90695 61.71919 249.90590999999998 61.717949999999995 C 249.83910999999998 61.62678999999999 249.76792999999998 61.53941999999999 249.70081 61.44853 C 249.71838 61.460679999999996 249.73672 61.472229999999996 249.75429 61.48444 C 249.80189 61.55862 249.85126 61.63228 249.89873 61.70652 C 249.89919 61.70737 249.89971 61.708279999999995 249.90017 61.709129999999995 C 249.89991 61.70853999999999 249.89958000000001 61.70802 249.89932 61.707429999999995 L 249.90265 61.71252 C 249.90095 61.70932 249.89899 61.70612 249.8973 61.70292 C 249.89521 61.69828 249.89299 61.69345 249.8909 61.68882 C 249.89358 61.69444 249.89645 61.70005 249.89912999999999 61.70567 C 249.87392 61.64729 249.8465 61.587869999999995 249.82116 61.529489999999996 C 249.87464 61.566509999999994 249.9304 61.60178 249.98375 61.63887 C 249.98538 61.64024 249.98708 61.641549999999995 249.98871 61.64292 C 249.92335 61.580099999999995 249.85504 61.52068 249.78955 61.458059999999996 C 249.76585 61.40354 249.74051 61.348029999999994 249.71674 61.29344 C 249.80867999999998 61.41359 249.90552 61.533089999999994 249.99706999999998 61.65324 Z M 32.10554 27.14556 C 58.224109999999996 13.32124 78.73691 44.66847 104.37728999999999 43.8521 C 113.11954999999999 43.5036 121.14599999999999 39.22099 128.33101 34.53665 C 141.37082999999998 26.106650000000002 153.01058999999998 14.90107 168.22068 10.702300000000001 C 200.65440999999998 2.0167900000000003 227.7731 25.830640000000002 244.5561 52.506460000000004 C 225.40359999999998 23.226520000000004 193.38809999999998 1.4138200000000012 158.79063 16.641410000000008 C 142.72996 23.81349000000001 130.20076999999998 37.47607000000001 113.23244 43.02313000000001 C 84.98344 52.59977000000001 63.57291 17.38712000000001 35.795429999999996 27.24533000000001 C 23.353809999999996 31.92326000000001 13.472549999999995 41.59772000000001 5.808309999999995 52.50829000000001 C 12.738719999999995 42.34233000000001 21.192029999999995 32.81518000000001 32.105529999999995 27.14556000000001 Z M 7.42081 49.34823 C 11.99041 42.47091 17.23592 35.9524 23.50257 30.655170000000002 C 34.32825 21.35461 45.57987 17.845980000000004 58.61159 23.712220000000002 C 72.52616 29.181310000000003 84.35658000000001 40.35869 99.66828000000001 42.48364 C 103.63896000000001 43.08249 107.78987000000001 42.57767 111.64014 41.49325 C 130.1898 35.33493 142.74877 18.931110000000004 159.82503 10.405840000000005 C 171.06659 4.613320000000005 184.53902 3.525510000000005 196.72631 7.468250000000005 C 215.91185000000002 13.902590000000004 230.17981 29.221860000000003 241.0689 46.278470000000006 C 224.51104 21.53875 198.10673 1.1679 167.90073 9.60541 C 151.00613 14.312079999999998 138.76190000000003 27.674799999999998 124.02568000000001 36.52611 C 114.29480000000001 42.542010000000005 104.02286000000001 45.60237 92.86899000000001 41.794740000000004 C 79.36842000000001 37.56515 68.42612000000001 27.909230000000004 54.86730000000001 23.946650000000005 C 35.72943000000001 17.819540000000003 18.658780000000007 33.10159 7.42081000000001 49.348240000000004 Z M 24.87012 34.02118 C 28.63694 31.37998 32.81416 29.15688 37.180170000000004 27.83445 C 44.53790000000001 25.34455 52.260510000000004 26.50745 59.33426 29.12456 C 85.75176 39.31958 99.11142000000001 54.74823 127.99075 36.65716 C 138.54021 30.372359999999997 148.14892 22.593519999999998 159.23827 17.629509999999996 C 181.86577 7.1188299999999956 208.90263 15.168989999999997 226.77548000000002 32.39995 C 233.26153000000002 38.22094 238.84059000000002 45.160489999999996 243.84195000000003 52.340019999999996 C 242.39193000000003 50.375769999999996 240.88673000000003 48.4522 239.40451000000002 46.606139999999996 C 223.90665 27.521159999999995 200.68414 13.338999999999999 176.01423000000003 15.885189999999998 C 156.72219 17.1973 141.64805 30.35812 125.37874000000002 39.241299999999995 C 115.16981000000003 44.7467 104.51855000000002 47.741099999999996 93.08461000000003 44.48224 C 79.98007000000003 41.10734 68.76156000000003 33.004819999999995 55.705870000000026 29.623979999999996 C 35.731190000000026 23.778369999999995 17.164810000000024 38.07930999999999 5.101070000000028 54.16421 C 10.638530000000028 46.54052 17.11858000000003 39.33435 24.87012000000003 34.02119 Z M 249.12023 60.28249 C 249.19689 60.42269 249.27401 60.56288 249.35014999999999 60.70308 C 249.32676999999998 60.66841 249.30293999999998 60.63399 249.27955999999998 60.59939 C 249.17755999999997 60.41851 249.08058999999997 60.23783 248.97591999999997 60.05695 C 249.02390999999997 60.13217 249.07242999999997 60.20733 249.12022999999996 60.28249 Z M 249.56975 61.1048 C 249.62414 61.205819999999996 249.68128 61.30677 249.73541 61.40779 C 249.73312 61.40564 249.73077 61.40341 249.72842 61.40126 C 249.66893 61.29143 249.60435 61.181400000000004 249.54382 61.0715 C 249.55237000000002 61.0826 249.56119 61.0937 249.56974000000002 61.1048 Z M 249.76127 61.45506 C 249.76617 61.464270000000006 249.77139 61.473470000000006 249.77635 61.48268 C 249.77504000000002 61.481570000000005 249.77354 61.48066 249.77224 61.47955 C 249.76708000000002 61.469950000000004 249.76134000000002 61.460480000000004 249.75618 61.450880000000005 C 249.75781 61.45232000000001 249.75964 61.45362000000001 249.76127 61.45506 Z M 22.86826 29.05594 C 33.4697 19.08502 44.89606 14.56916 58.2742 20.919069999999998 C 75.39787 27.913079999999997 91.49635 46.70971 111.9022 40.16345 C 124.47233 35.73026 134.03244999999998 25.99729 144.16765999999998 17.894239999999996 C 149.22406999999998 13.784009999999997 154.37717999999998 9.747379999999996 160.09949999999998 6.733389999999996 C 178.12050999999997 -3.151010000000003 198.80569999999997 0.8028299999999966 214.74366999999998 13.754499999999997 C 225.52494 22.375759999999996 234.05660999999998 33.39067 241.13583999999997 45.26340999999999 C 225.11662 19.60258 198.92492 -3.10714 168.29186 5.85792 C 158.96126 8.52309 150.89054000000002 14.21465 143.38804000000002 20.156309999999998 C 131.33096 29.284019999999998 118.25953000000001 42.662099999999995 102.08864000000003 42.33998 C 85.69579000000003 41.295199999999994 73.54932000000002 28.74028 58.99143000000003 22.83121 C 53.119710000000026 20.331509999999998 46.44233000000003 18.760949999999998 40.02640000000003 20.483459999999997 C 26.787350000000032 24.083569999999998 16.29444000000003 34.997789999999995 8.38970000000003 46.95013 C 12.54074000000003 40.45376 17.26850000000003 34.2795 22.86825000000003 29.05593 Z M 25.58246 35.80534 C 57.79026 14.96284 79.54204 51.9063 110.89560999999999 45.381660000000004 C 116.0529 44.31683 120.9904 42.151920000000004 125.66081999999999 39.778510000000004 C 149.05441 26.876010000000004 164.93295999999998 12.219000000000005 193.9056 18.107180000000003 C 216.00275 22.651840000000004 234.04426 38.734320000000004 246.91613 57.24167 C 226.22127 29.02806 191.74016 11.83896 158.15848 24.55536 C 141.06511 30.94836 126.8025 43.94979 108.38565 46.87511 C 84.9901 50.23362 66.15104 30.05684 43.008790000000005 31.804299999999998 C 25.12968 33.91599 10.15003 47.11808 0.03043 61.61713 C 6.84076 51.84857 15.21845 42.14884000000001 25.58247 35.80534 Z M 43.0739 32.80728 C 66.65182 31.273149999999998 86.57289 51.6566 110.61842000000001 46.92355 C 116.43490000000001 45.89562 121.94748000000001 43.65868 127.23309000000002 41.134949999999996 C 137.81971000000001 36.073649999999994 147.66812000000002 29.622849999999996 158.54499 25.567939999999997 C 180.46074000000002 17.333639999999995 205.84789 22.25436 224.95508 36.30114999999999 C 234.31976 42.841269999999994 242.28588000000002 51.67193999999999 249.19050000000001 60.61798999999999 C 249.3463 60.856849999999994 249.50289 61.09551999999999 249.65699 61.33496999999999 C 249.609 61.28932999999999 249.55956 61.24544999999999 249.51157 61.199929999999995 C 228.41454000000002 32.837959999999995 191.30502 17.517249999999997 157.80451 28.923169999999992 C 140.2481 34.70366999999999 124.94679 47.02886999999999 106.04961 48.54444999999999 C 85.59943 50.07876999999999 68.20039 36.194959999999995 48.14096 35.18341999999999 C 29.169 34.57635 11.66894 46.96737 0.01208 61.64384 C 10.60216 48.0064 25.36169 34.704139999999995 43.073899999999995 32.80728 Z M 43.83952 36.24212 C 66.78509 35.2104 87.00104999999999 52.452200000000005 110.35637 48.47786 C 116.04108 47.6199 121.52969999999999 45.74811 126.81732 43.55323 C 137.40556999999998 39.17169 147.3776 33.48032 158.1526 29.94896 C 179.76791 22.857779999999998 204.2143 26.561 223.87359 38.71009 C 233.50894 44.57992 242.02963 52.27087 249.29183 60.99595 C 249.26042 60.96637 249.22856000000002 60.93757 249.19715 60.90806 C 230.75562 39.70825 201.61196 27.593899999999998 174.02372 29.98292 C 157.01498 30.9814 141.81083 39.24789 126.22416 45.20274 C 100.01078 55.46789 85.95399 46.970439999999996 61.203959999999995 40.39101 C 38.63463 33.97985 15.74528 44.34132 0.01424 61.64208 C 11.214929999999999 48.95095 26.58448 37.42939 43.83953 36.24213 Z M 249.49583 61.23579 C 249.52352000000002 61.269220000000004 249.55251 61.30155 249.58013000000003 61.33498 C 249.57105 61.32793 249.56165000000001 61.32133 249.55264000000003 61.31422 C 249.51979000000003 61.276019999999995 249.48597000000004 61.23873 249.45306000000002 61.20053 C 249.46716000000004 61.21241 249.48179000000002 61.223910000000004 249.49583 61.23579 Z M 60.96861 41.31688 C 85.34331 47.33638 100.7397 55.64928999999999 126.43735 45.79409 C 137.01528 42.050779999999996 147.09636 37.101589999999995 157.78203 34.06501 C 189.51139 24.92881 225.3562 36.02064 248.66443999999998 60.413489999999996 C 236.69459999999998 49.356719999999996 221.86154 41.63540999999999 206.35505999999998 37.61425 C 190.21484999999998 33.51539 173.18455999999998 33.20234 157.14980999999997 37.175309999999996 C 141.15612999999996 41.08069 126.38419999999998 49.08239999999999 109.87850999999998 50.98976999999999 C 93.24966999999998 53.17844999999999 77.50699999999998 46.73196999999999 61.555839999999975 43.449659999999994 C 39.65812 38.20572 16.78379 46.08211 0.01698 61.63979 C 16.58613 45.27789 38.083839999999995 35.11355999999999 60.968619999999994 41.316869999999994 Z M 221.11904 45.91018 C 200.47427000000002 38.606649999999995 178.06251 36.95988 156.85996 41.1962 C 146.24135 43.31704 136.05756 46.94229 125.60343 49.55437 C 115.18339 52.24951 104.30841000000001 53.58186 93.5925 52.2422 C 78.86712 50.62932 64.66028 45.716969999999996 49.78269 45.103809999999996 C 32.20558 44.63954 14.3153 50.80759 0.01992 61.6377 C 12.677420000000001 51.130160000000004 28.70074 43.33297 45.15144 42.83461 C 61.68409 42.4897 77.16517 49.04909 93.45505 51.13532 C 104.37521 52.72704 115.55161 51.20447 126.07357999999999 48.02828 C 136.63048999999998 44.92783 146.81193 40.758250000000004 157.41598 38.224270000000004 C 178.60907 33.243680000000005 201.43586 35.30176 221.7894 43.918510000000005 C 231.72022 47.992230000000006 241.09202 54.17289 249.26716 61.04695000000001 C 249.32533999999998 61.10892000000001 249.38495999999998 61.16945000000001 249.44294 61.23168000000001 C 240.89221 54.587080000000014 231.21187 49.52108000000001 221.11903999999998 45.910190000000014 Z M 249.90414 61.71593 C 249.81318000000002 61.60864 249.71778 61.50515 249.62623000000002 61.39832 C 249.63224000000002 61.402499999999996 249.63851000000003 61.406479999999995 249.64451000000003 61.41066 C 249.72953 61.5137 249.81951000000004 61.61263 249.90414 61.71593 Z M 249.66025 61.39531 C 249.64437999999998 61.37389 249.62767 61.35306 249.6118 61.33158 C 249.64236 61.357440000000004 249.67416 61.38251 249.70471999999998 61.408370000000005 C 249.71327 61.421690000000005 249.72214999999997 61.435010000000005 249.73076999999998 61.448330000000006 C 249.70758999999998 61.43018000000001 249.68343 61.41346000000001 249.66025 61.39531000000001 Z M 249.78752 61.50684 C 249.78856 61.507619999999996 249.78974 61.50821 249.79078 61.50899 C 249.81853 61.56084 249.84818 61.612809999999996 249.87586000000002 61.66466 C 249.84778000000003 61.612089999999995 249.81585 61.5594 249.78751000000003 61.50683 Z M 249.98328 61.63849 C 249.92732 61.59435 249.86855 61.55386 249.81246000000002 61.50985 C 249.80959000000001 61.50332 249.80665000000002 61.49672 249.80378000000002 61.4902 C 249.86268 61.540220000000005 249.92458000000002 61.58841 249.98329 61.638490000000004 Z" stroke-linecap="round" />
</g>
</g>
</g>
		<g transform="matrix(-0.736516136876398 -0.1700381482554408 0.17003814825544075 -0.7365161368763977 -5.940880876911763 -47.95013221599427)"  >
<g style=""  paint-order="stroke"   >
		<g transform="matrix(1 0 0 1 0 0)"  >
<linearGradient id="SVGID_41_342764" gradientUnits="userSpaceOnUse" gradientTransform="matrix(1 0 0 1 0 4.6968171574235e-7)"  x1="125.00000000000003" y1="0" x2="124.99999999999997" y2="61.72166953031828">
<stop offset="0%" style="stop-color:rgb(107,103,103);stop-opacity: 1"/>
<stop offset="100%" style="stop-color:rgb(0,115,230);stop-opacity: 1"/>
</linearGradient>
<path style="stroke: none; stroke-width: 1; stroke-dasharray: none; stroke-linecap: butt; stroke-dashoffset: 0; stroke-linejoin: miter; stroke-miterlimit: 4; fill: url(#SVGID_41_342764); fill-rule: nonzero; opacity: 1;"  paint-order="stroke"  transform=" translate(-125, -30.860835234840856)" d="M 249.99706 61.65324 C 249.88449 61.481899999999996 249.76466 61.31578 249.65111000000002 61.145149999999994 C 249.6357 61.10988999999999 249.61957 61.074169999999995 249.60409 61.03883999999999 C 249.73436 61.24491999999999 249.87044 61.451789999999995 250 61.65767999999999 C 249.7915 61.27051999999999 249.57837 60.88493999999999 249.36536 60.49927999999999 C 236.81018 32.0476 212.68147 -2.07744 178.41695 0.09903 C 164.98599000000002 0.9549700000000001 153.45202 8.67726 143.60216000000003 17.21513 C 131.77421000000004 26.750899999999998 118.50441000000002 41.5246 102.15361000000003 41.19719 C 92.21776000000003 40.71287 83.65540000000003 35.01379 75.55373000000003 29.87511 C 70.09058000000003 26.36335 64.65812000000003 22.735219999999998 58.67277000000003 20.04596 C 52.702380000000026 17.357020000000002 45.82192000000003 15.80122 39.284280000000024 17.857020000000002 C 20.64647 23.85235 7.85243 44.70183 0.00098 61.65958 C 0.00085 61.65978 0.00078 61.660039999999995 0.00065 61.66023 C 0.0007199999999999999 61.66016 0.0007199999999999999 61.6601 0.00078 61.66003 C 0.0005200000000000001 61.66055 0.00026000000000000003 61.661139999999996 0 61.66166 C 0.00072 61.660219999999995 0.0015 61.65885 0.00222 61.657419999999995 C 0.00222 61.657349999999994 0.0022900000000000004 61.657349999999994 0.0022900000000000004 61.657289999999996 C 0.0026200000000000004 61.656699999999994 0.0030100000000000005 61.65618 0.0033300000000000005 61.65559 C 0.0038500000000000006 61.65481 0.0043100000000000005 61.654019999999996 0.004830000000000001 61.65324 C 0.005290000000000001 61.65259 0.005810000000000001 61.65193 0.006270000000000001 61.65128 C 0.007050000000000002 61.65024 0.0079 61.64926 0.008690000000000002 61.64821 C 0.009540000000000002 61.647169999999996 0.010520000000000002 61.646319999999996 0.011370000000000002 61.64527 C 0.012680000000000002 61.64396 0.013920000000000002 61.64279 0.015220000000000001 61.641479999999994 C 0.01653 61.64037 0.01803 61.63925999999999 0.01933 61.638149999999996 C 17.98692 49.38798 40.55121 43.12976 61.697739999999996 47.34609 C 77.54312 49.714079999999996 93.46288 54.39228 109.74726999999999 52.82459 C 115.13969999999999 52.33818 120.48864999999998 51.40898 125.75151999999999 50.164970000000004 C 136.28008999999997 47.681990000000006 146.54557 44.29527 157.08131999999998 42.25495 C 178.13786999999996 38.26781 200.28365999999997 39.83916 220.85091999999997 46.75697 C 230.98990999999998 50.070420000000006 240.82383 55.33265 249.55759999999998 61.35221 C 249.67336999999998 61.4768 249.79404999999997 61.59636 249.90917 61.721669999999996 C 249.90813 61.72042999999999 249.90695 61.71919 249.90590999999998 61.717949999999995 C 249.83910999999998 61.62678999999999 249.76792999999998 61.53941999999999 249.70081 61.44853 C 249.71838 61.460679999999996 249.73672 61.472229999999996 249.75429 61.48444 C 249.80189 61.55862 249.85126 61.63228 249.89873 61.70652 C 249.89919 61.70737 249.89971 61.708279999999995 249.90017 61.709129999999995 C 249.89991 61.70853999999999 249.89958000000001 61.70802 249.89932 61.707429999999995 L 249.90265 61.71252 C 249.90095 61.70932 249.89899 61.70612 249.8973 61.70292 C 249.89521 61.69828 249.89299 61.69345 249.8909 61.68882 C 249.89358 61.69444 249.89645 61.70005 249.89912999999999 61.70567 C 249.87392 61.64729 249.8465 61.587869999999995 249.82116 61.529489999999996 C 249.87464 61.566509999999994 249.9304 61.60178 249.98375 61.63887 C 249.98538 61.64024 249.98708 61.641549999999995 249.98871 61.64292 C 249.92335 61.580099999999995 249.85504 61.52068 249.78955 61.458059999999996 C 249.76585 61.40354 249.74051 61.348029999999994 249.71674 61.29344 C 249.80867999999998 61.41359 249.90552 61.533089999999994 249.99706999999998 61.65324 Z M 32.10554 27.14556 C 58.224109999999996 13.32124 78.73691 44.66847 104.37728999999999 43.8521 C 113.11954999999999 43.5036 121.14599999999999 39.22099 128.33101 34.53665 C 141.37082999999998 26.106650000000002 153.01058999999998 14.90107 168.22068 10.702300000000001 C 200.65440999999998 2.0167900000000003 227.7731 25.830640000000002 244.5561 52.506460000000004 C 225.40359999999998 23.226520000000004 193.38809999999998 1.4138200000000012 158.79063 16.641410000000008 C 142.72996 23.81349000000001 130.20076999999998 37.47607000000001 113.23244 43.02313000000001 C 84.98344 52.59977000000001 63.57291 17.38712000000001 35.795429999999996 27.24533000000001 C 23.353809999999996 31.92326000000001 13.472549999999995 41.59772000000001 5.808309999999995 52.50829000000001 C 12.738719999999995 42.34233000000001 21.192029999999995 32.81518000000001 32.105529999999995 27.14556000000001 Z M 7.42081 49.34823 C 11.99041 42.47091 17.23592 35.9524 23.50257 30.655170000000002 C 34.32825 21.35461 45.57987 17.845980000000004 58.61159 23.712220000000002 C 72.52616 29.181310000000003 84.35658000000001 40.35869 99.66828000000001 42.48364 C 103.63896000000001 43.08249 107.78987000000001 42.57767 111.64014 41.49325 C 130.1898 35.33493 142.74877 18.931110000000004 159.82503 10.405840000000005 C 171.06659 4.613320000000005 184.53902 3.525510000000005 196.72631 7.468250000000005 C 215.91185000000002 13.902590000000004 230.17981 29.221860000000003 241.0689 46.278470000000006 C 224.51104 21.53875 198.10673 1.1679 167.90073 9.60541 C 151.00613 14.312079999999998 138.76190000000003 27.674799999999998 124.02568000000001 36.52611 C 114.29480000000001 42.542010000000005 104.02286000000001 45.60237 92.86899000000001 41.794740000000004 C 79.36842000000001 37.56515 68.42612000000001 27.909230000000004 54.86730000000001 23.946650000000005 C 35.72943000000001 17.819540000000003 18.658780000000007 33.10159 7.42081000000001 49.348240000000004 Z M 24.87012 34.02118 C 28.63694 31.37998 32.81416 29.15688 37.180170000000004 27.83445 C 44.53790000000001 25.34455 52.260510000000004 26.50745 59.33426 29.12456 C 85.75176 39.31958 99.11142000000001 54.74823 127.99075 36.65716 C 138.54021 30.372359999999997 148.14892 22.593519999999998 159.23827 17.629509999999996 C 181.86577 7.1188299999999956 208.90263 15.168989999999997 226.77548000000002 32.39995 C 233.26153000000002 38.22094 238.84059000000002 45.160489999999996 243.84195000000003 52.340019999999996 C 242.39193000000003 50.375769999999996 240.88673000000003 48.4522 239.40451000000002 46.606139999999996 C 223.90665 27.521159999999995 200.68414 13.338999999999999 176.01423000000003 15.885189999999998 C 156.72219 17.1973 141.64805 30.35812 125.37874000000002 39.241299999999995 C 115.16981000000003 44.7467 104.51855000000002 47.741099999999996 93.08461000000003 44.48224 C 79.98007000000003 41.10734 68.76156000000003 33.004819999999995 55.705870000000026 29.623979999999996 C 35.731190000000026 23.778369999999995 17.164810000000024 38.07930999999999 5.101070000000028 54.16421 C 10.638530000000028 46.54052 17.11858000000003 39.33435 24.87012000000003 34.02119 Z M 249.12023 60.28249 C 249.19689 60.42269 249.27401 60.56288 249.35014999999999 60.70308 C 249.32676999999998 60.66841 249.30293999999998 60.63399 249.27955999999998 60.59939 C 249.17755999999997 60.41851 249.08058999999997 60.23783 248.97591999999997 60.05695 C 249.02390999999997 60.13217 249.07242999999997 60.20733 249.12022999999996 60.28249 Z M 249.56975 61.1048 C 249.62414 61.205819999999996 249.68128 61.30677 249.73541 61.40779 C 249.73312 61.40564 249.73077 61.40341 249.72842 61.40126 C 249.66893 61.29143 249.60435 61.181400000000004 249.54382 61.0715 C 249.55237000000002 61.0826 249.56119 61.0937 249.56974000000002 61.1048 Z M 249.76127 61.45506 C 249.76617 61.464270000000006 249.77139 61.473470000000006 249.77635 61.48268 C 249.77504000000002 61.481570000000005 249.77354 61.48066 249.77224 61.47955 C 249.76708000000002 61.469950000000004 249.76134000000002 61.460480000000004 249.75618 61.450880000000005 C 249.75781 61.45232000000001 249.75964 61.45362000000001 249.76127 61.45506 Z M 22.86826 29.05594 C 33.4697 19.08502 44.89606 14.56916 58.2742 20.919069999999998 C 75.39787 27.913079999999997 91.49635 46.70971 111.9022 40.16345 C 124.47233 35.73026 134.03244999999998 25.99729 144.16765999999998 17.894239999999996 C 149.22406999999998 13.784009999999997 154.37717999999998 9.747379999999996 160.09949999999998 6.733389999999996 C 178.12050999999997 -3.151010000000003 198.80569999999997 0.8028299999999966 214.74366999999998 13.754499999999997 C 225.52494 22.375759999999996 234.05660999999998 33.39067 241.13583999999997 45.26340999999999 C 225.11662 19.60258 198.92492 -3.10714 168.29186 5.85792 C 158.96126 8.52309 150.89054000000002 14.21465 143.38804000000002 20.156309999999998 C 131.33096 29.284019999999998 118.25953000000001 42.662099999999995 102.08864000000003 42.33998 C 85.69579000000003 41.295199999999994 73.54932000000002 28.74028 58.99143000000003 22.83121 C 53.119710000000026 20.331509999999998 46.44233000000003 18.760949999999998 40.02640000000003 20.483459999999997 C 26.787350000000032 24.083569999999998 16.29444000000003 34.997789999999995 8.38970000000003 46.95013 C 12.54074000000003 40.45376 17.26850000000003 34.2795 22.86825000000003 29.05593 Z M 25.58246 35.80534 C 57.79026 14.96284 79.54204 51.9063 110.89560999999999 45.381660000000004 C 116.0529 44.31683 120.9904 42.151920000000004 125.66081999999999 39.778510000000004 C 149.05441 26.876010000000004 164.93295999999998 12.219000000000005 193.9056 18.107180000000003 C 216.00275 22.651840000000004 234.04426 38.734320000000004 246.91613 57.24167 C 226.22127 29.02806 191.74016 11.83896 158.15848 24.55536 C 141.06511 30.94836 126.8025 43.94979 108.38565 46.87511 C 84.9901 50.23362 66.15104 30.05684 43.008790000000005 31.804299999999998 C 25.12968 33.91599 10.15003 47.11808 0.03043 61.61713 C 6.84076 51.84857 15.21845 42.14884000000001 25.58247 35.80534 Z M 43.0739 32.80728 C 66.65182 31.273149999999998 86.57289 51.6566 110.61842000000001 46.92355 C 116.43490000000001 45.89562 121.94748000000001 43.65868 127.23309000000002 41.134949999999996 C 137.81971000000001 36.073649999999994 147.66812000000002 29.622849999999996 158.54499 25.567939999999997 C 180.46074000000002 17.333639999999995 205.84789 22.25436 224.95508 36.30114999999999 C 234.31976 42.841269999999994 242.28588000000002 51.67193999999999 249.19050000000001 60.61798999999999 C 249.3463 60.856849999999994 249.50289 61.09551999999999 249.65699 61.33496999999999 C 249.609 61.28932999999999 249.55956 61.24544999999999 249.51157 61.199929999999995 C 228.41454000000002 32.837959999999995 191.30502 17.517249999999997 157.80451 28.923169999999992 C 140.2481 34.70366999999999 124.94679 47.02886999999999 106.04961 48.54444999999999 C 85.59943 50.07876999999999 68.20039 36.194959999999995 48.14096 35.18341999999999 C 29.169 34.57635 11.66894 46.96737 0.01208 61.64384 C 10.60216 48.0064 25.36169 34.704139999999995 43.073899999999995 32.80728 Z M 43.83952 36.24212 C 66.78509 35.2104 87.00104999999999 52.452200000000005 110.35637 48.47786 C 116.04108 47.6199 121.52969999999999 45.74811 126.81732 43.55323 C 137.40556999999998 39.17169 147.3776 33.48032 158.1526 29.94896 C 179.76791 22.857779999999998 204.2143 26.561 223.87359 38.71009 C 233.50894 44.57992 242.02963 52.27087 249.29183 60.99595 C 249.26042 60.96637 249.22856000000002 60.93757 249.19715 60.90806 C 230.75562 39.70825 201.61196 27.593899999999998 174.02372 29.98292 C 157.01498 30.9814 141.81083 39.24789 126.22416 45.20274 C 100.01078 55.46789 85.95399 46.970439999999996 61.203959999999995 40.39101 C 38.63463 33.97985 15.74528 44.34132 0.01424 61.64208 C 11.214929999999999 48.95095 26.58448 37.42939 43.83953 36.24213 Z M 249.49583 61.23579 C 249.52352000000002 61.269220000000004 249.55251 61.30155 249.58013000000003 61.33498 C 249.57105 61.32793 249.56165000000001 61.32133 249.55264000000003 61.31422 C 249.51979000000003 61.276019999999995 249.48597000000004 61.23873 249.45306000000002 61.20053 C 249.46716000000004 61.21241 249.48179000000002 61.223910000000004 249.49583 61.23579 Z M 60.96861 41.31688 C 85.34331 47.33638 100.7397 55.64928999999999 126.43735 45.79409 C 137.01528 42.050779999999996 147.09636 37.101589999999995 157.78203 34.06501 C 189.51139 24.92881 225.3562 36.02064 248.66443999999998 60.413489999999996 C 236.69459999999998 49.356719999999996 221.86154 41.63540999999999 206.35505999999998 37.61425 C 190.21484999999998 33.51539 173.18455999999998 33.20234 157.14980999999997 37.175309999999996 C 141.15612999999996 41.08069 126.38419999999998 49.08239999999999 109.87850999999998 50.98976999999999 C 93.24966999999998 53.17844999999999 77.50699999999998 46.73196999999999 61.555839999999975 43.449659999999994 C 39.65812 38.20572 16.78379 46.08211 0.01698 61.63979 C 16.58613 45.27789 38.083839999999995 35.11355999999999 60.968619999999994 41.316869999999994 Z M 221.11904 45.91018 C 200.47427000000002 38.606649999999995 178.06251 36.95988 156.85996 41.1962 C 146.24135 43.31704 136.05756 46.94229 125.60343 49.55437 C 115.18339 52.24951 104.30841000000001 53.58186 93.5925 52.2422 C 78.86712 50.62932 64.66028 45.716969999999996 49.78269 45.103809999999996 C 32.20558 44.63954 14.3153 50.80759 0.01992 61.6377 C 12.677420000000001 51.130160000000004 28.70074 43.33297 45.15144 42.83461 C 61.68409 42.4897 77.16517 49.04909 93.45505 51.13532 C 104.37521 52.72704 115.55161 51.20447 126.07357999999999 48.02828 C 136.63048999999998 44.92783 146.81193 40.758250000000004 157.41598 38.224270000000004 C 178.60907 33.243680000000005 201.43586 35.30176 221.7894 43.918510000000005 C 231.72022 47.992230000000006 241.09202 54.17289 249.26716 61.04695000000001 C 249.32533999999998 61.10892000000001 249.38495999999998 61.16945000000001 249.44294 61.23168000000001 C 240.89221 54.587080000000014 231.21187 49.52108000000001 221.11903999999998 45.910190000000014 Z M 249.90414 61.71593 C 249.81318000000002 61.60864 249.71778 61.50515 249.62623000000002 61.39832 C 249.63224000000002 61.402499999999996 249.63851000000003 61.406479999999995 249.64451000000003 61.41066 C 249.72953 61.5137 249.81951000000004 61.61263 249.90414 61.71593 Z M 249.66025 61.39531 C 249.64437999999998 61.37389 249.62767 61.35306 249.6118 61.33158 C 249.64236 61.357440000000004 249.67416 61.38251 249.70471999999998 61.408370000000005 C 249.71327 61.421690000000005 249.72214999999997 61.435010000000005 249.73076999999998 61.448330000000006 C 249.70758999999998 61.43018000000001 249.68343 61.41346000000001 249.66025 61.39531000000001 Z M 249.78752 61.50684 C 249.78856 61.507619999999996 249.78974 61.50821 249.79078 61.50899 C 249.81853 61.56084 249.84818 61.612809999999996 249.87586000000002 61.66466 C 249.84778000000003 61.612089999999995 249.81585 61.5594 249.78751000000003 61.50683 Z M 249.98328 61.63849 C 249.92732 61.59435 249.86855 61.55386 249.81246000000002 61.50985 C 249.80959000000001 61.50332 249.80665000000002 61.49672 249.80378000000002 61.4902 C 249.86268 61.540220000000005 249.92458000000002 61.58841 249.98329 61.638490000000004 Z" stroke-linecap="round" />
</g>
</g>
</g>
		<g transform="matrix(0.8924283917263393 -0.4745125929633795 -0.4745125929633793 -0.8924283917263394 36.12599295218695 18.60437784597883)"  >
<g style=""  paint-order="stroke"   >
		<g transform="matrix(1 0 0 1 0 0)"  >
<linearGradient id="SVGID_41_342765" gradientUnits="userSpaceOnUse" gradientTransform="matrix(1 0 0 1 0 4.6968171574235e-7)"  x1="125.00000000000003" y1="0" x2="124.99999999999997" y2="61.72166953031828">
<stop offset="0%" style="stop-color:rgb(107,103,103);stop-opacity: 1"/>
<stop offset="100%" style="stop-color:rgb(0,115,230);stop-opacity: 1"/>
</linearGradient>
<path style="stroke: none; stroke-width: 1; stroke-dasharray: none; stroke-linecap: butt; stroke-dashoffset: 0; stroke-linejoin: miter; stroke-miterlimit: 4; fill: url(#SVGID_41_342765); fill-rule: nonzero; opacity: 1;"  paint-order="stroke"  transform=" translate(-125, -30.860835234840856)" d="M 249.99706 61.65324 C 249.88449 61.481899999999996 249.76466 61.31578 249.65111000000002 61.145149999999994 C 249.6357 61.10988999999999 249.61957 61.074169999999995 249.60409 61.03883999999999 C 249.73436 61.24491999999999 249.87044 61.451789999999995 250 61.65767999999999 C 249.7915 61.27051999999999 249.57837 60.88493999999999 249.36536 60.49927999999999 C 236.81018 32.0476 212.68147 -2.07744 178.41695 0.09903 C 164.98599000000002 0.9549700000000001 153.45202 8.67726 143.60216000000003 17.21513 C 131.77421000000004 26.750899999999998 118.50441000000002 41.5246 102.15361000000003 41.19719 C 92.21776000000003 40.71287 83.65540000000003 35.01379 75.55373000000003 29.87511 C 70.09058000000003 26.36335 64.65812000000003 22.735219999999998 58.67277000000003 20.04596 C 52.702380000000026 17.357020000000002 45.82192000000003 15.80122 39.284280000000024 17.857020000000002 C 20.64647 23.85235 7.85243 44.70183 0.00098 61.65958 C 0.00085 61.65978 0.00078 61.660039999999995 0.00065 61.66023 C 0.0007199999999999999 61.66016 0.0007199999999999999 61.6601 0.00078 61.66003 C 0.0005200000000000001 61.66055 0.00026000000000000003 61.661139999999996 0 61.66166 C 0.00072 61.660219999999995 0.0015 61.65885 0.00222 61.657419999999995 C 0.00222 61.657349999999994 0.0022900000000000004 61.657349999999994 0.0022900000000000004 61.657289999999996 C 0.0026200000000000004 61.656699999999994 0.0030100000000000005 61.65618 0.0033300000000000005 61.65559 C 0.0038500000000000006 61.65481 0.0043100000000000005 61.654019999999996 0.004830000000000001 61.65324 C 0.005290000000000001 61.65259 0.005810000000000001 61.65193 0.006270000000000001 61.65128 C 0.007050000000000002 61.65024 0.0079 61.64926 0.008690000000000002 61.64821 C 0.009540000000000002 61.647169999999996 0.010520000000000002 61.646319999999996 0.011370000000000002 61.64527 C 0.012680000000000002 61.64396 0.013920000000000002 61.64279 0.015220000000000001 61.641479999999994 C 0.01653 61.64037 0.01803 61.63925999999999 0.01933 61.638149999999996 C 17.98692 49.38798 40.55121 43.12976 61.697739999999996 47.34609 C 77.54312 49.714079999999996 93.46288 54.39228 109.74726999999999 52.82459 C 115.13969999999999 52.33818 120.48864999999998 51.40898 125.75151999999999 50.164970000000004 C 136.28008999999997 47.681990000000006 146.54557 44.29527 157.08131999999998 42.25495 C 178.13786999999996 38.26781 200.28365999999997 39.83916 220.85091999999997 46.75697 C 230.98990999999998 50.070420000000006 240.82383 55.33265 249.55759999999998 61.35221 C 249.67336999999998 61.4768 249.79404999999997 61.59636 249.90917 61.721669999999996 C 249.90813 61.72042999999999 249.90695 61.71919 249.90590999999998 61.717949999999995 C 249.83910999999998 61.62678999999999 249.76792999999998 61.53941999999999 249.70081 61.44853 C 249.71838 61.460679999999996 249.73672 61.472229999999996 249.75429 61.48444 C 249.80189 61.55862 249.85126 61.63228 249.89873 61.70652 C 249.89919 61.70737 249.89971 61.708279999999995 249.90017 61.709129999999995 C 249.89991 61.70853999999999 249.89958000000001 61.70802 249.89932 61.707429999999995 L 249.90265 61.71252 C 249.90095 61.70932 249.89899 61.70612 249.8973 61.70292 C 249.89521 61.69828 249.89299 61.69345 249.8909 61.68882 C 249.89358 61.69444 249.89645 61.70005 249.89912999999999 61.70567 C 249.87392 61.64729 249.8465 61.587869999999995 249.82116 61.529489999999996 C 249.87464 61.566509999999994 249.9304 61.60178 249.98375 61.63887 C 249.98538 61.64024 249.98708 61.641549999999995 249.98871 61.64292 C 249.92335 61.580099999999995 249.85504 61.52068 249.78955 61.458059999999996 C 249.76585 61.40354 249.74051 61.348029999999994 249.71674 61.29344 C 249.80867999999998 61.41359 249.90552 61.533089999999994 249.99706999999998 61.65324 Z M 32.10554 27.14556 C 58.224109999999996 13.32124 78.73691 44.66847 104.37728999999999 43.8521 C 113.11954999999999 43.5036 121.14599999999999 39.22099 128.33101 34.53665 C 141.37082999999998 26.106650000000002 153.01058999999998 14.90107 168.22068 10.702300000000001 C 200.65440999999998 2.0167900000000003 227.7731 25.830640000000002 244.5561 52.506460000000004 C 225.40359999999998 23.226520000000004 193.38809999999998 1.4138200000000012 158.79063 16.641410000000008 C 142.72996 23.81349000000001 130.20076999999998 37.47607000000001 113.23244 43.02313000000001 C 84.98344 52.59977000000001 63.57291 17.38712000000001 35.795429999999996 27.24533000000001 C 23.353809999999996 31.92326000000001 13.472549999999995 41.59772000000001 5.808309999999995 52.50829000000001 C 12.738719999999995 42.34233000000001 21.192029999999995 32.81518000000001 32.105529999999995 27.14556000000001 Z M 7.42081 49.34823 C 11.99041 42.47091 17.23592 35.9524 23.50257 30.655170000000002 C 34.32825 21.35461 45.57987 17.845980000000004 58.61159 23.712220000000002 C 72.52616 29.181310000000003 84.35658000000001 40.35869 99.66828000000001 42.48364 C 103.63896000000001 43.08249 107.78987000000001 42.57767 111.64014 41.49325 C 130.1898 35.33493 142.74877 18.931110000000004 159.82503 10.405840000000005 C 171.06659 4.613320000000005 184.53902 3.525510000000005 196.72631 7.468250000000005 C 215.91185000000002 13.902590000000004 230.17981 29.221860000000003 241.0689 46.278470000000006 C 224.51104 21.53875 198.10673 1.1679 167.90073 9.60541 C 151.00613 14.312079999999998 138.76190000000003 27.674799999999998 124.02568000000001 36.52611 C 114.29480000000001 42.542010000000005 104.02286000000001 45.60237 92.86899000000001 41.794740000000004 C 79.36842000000001 37.56515 68.42612000000001 27.909230000000004 54.86730000000001 23.946650000000005 C 35.72943000000001 17.819540000000003 18.658780000000007 33.10159 7.42081000000001 49.348240000000004 Z M 24.87012 34.02118 C 28.63694 31.37998 32.81416 29.15688 37.180170000000004 27.83445 C 44.53790000000001 25.34455 52.260510000000004 26.50745 59.33426 29.12456 C 85.75176 39.31958 99.11142000000001 54.74823 127.99075 36.65716 C 138.54021 30.372359999999997 148.14892 22.593519999999998 159.23827 17.629509999999996 C 181.86577 7.1188299999999956 208.90263 15.168989999999997 226.77548000000002 32.39995 C 233.26153000000002 38.22094 238.84059000000002 45.160489999999996 243.84195000000003 52.340019999999996 C 242.39193000000003 50.375769999999996 240.88673000000003 48.4522 239.40451000000002 46.606139999999996 C 223.90665 27.521159999999995 200.68414 13.338999999999999 176.01423000000003 15.885189999999998 C 156.72219 17.1973 141.64805 30.35812 125.37874000000002 39.241299999999995 C 115.16981000000003 44.7467 104.51855000000002 47.741099999999996 93.08461000000003 44.48224 C 79.98007000000003 41.10734 68.76156000000003 33.004819999999995 55.705870000000026 29.623979999999996 C 35.731190000000026 23.778369999999995 17.164810000000024 38.07930999999999 5.101070000000028 54.16421 C 10.638530000000028 46.54052 17.11858000000003 39.33435 24.87012000000003 34.02119 Z M 249.12023 60.28249 C 249.19689 60.42269 249.27401 60.56288 249.35014999999999 60.70308 C 249.32676999999998 60.66841 249.30293999999998 60.63399 249.27955999999998 60.59939 C 249.17755999999997 60.41851 249.08058999999997 60.23783 248.97591999999997 60.05695 C 249.02390999999997 60.13217 249.07242999999997 60.20733 249.12022999999996 60.28249 Z M 249.56975 61.1048 C 249.62414 61.205819999999996 249.68128 61.30677 249.73541 61.40779 C 249.73312 61.40564 249.73077 61.40341 249.72842 61.40126 C 249.66893 61.29143 249.60435 61.181400000000004 249.54382 61.0715 C 249.55237000000002 61.0826 249.56119 61.0937 249.56974000000002 61.1048 Z M 249.76127 61.45506 C 249.76617 61.464270000000006 249.77139 61.473470000000006 249.77635 61.48268 C 249.77504000000002 61.481570000000005 249.77354 61.48066 249.77224 61.47955 C 249.76708000000002 61.469950000000004 249.76134000000002 61.460480000000004 249.75618 61.450880000000005 C 249.75781 61.45232000000001 249.75964 61.45362000000001 249.76127 61.45506 Z M 22.86826 29.05594 C 33.4697 19.08502 44.89606 14.56916 58.2742 20.919069999999998 C 75.39787 27.913079999999997 91.49635 46.70971 111.9022 40.16345 C 124.47233 35.73026 134.03244999999998 25.99729 144.16765999999998 17.894239999999996 C 149.22406999999998 13.784009999999997 154.37717999999998 9.747379999999996 160.09949999999998 6.733389999999996 C 178.12050999999997 -3.151010000000003 198.80569999999997 0.8028299999999966 214.74366999999998 13.754499999999997 C 225.52494 22.375759999999996 234.05660999999998 33.39067 241.13583999999997 45.26340999999999 C 225.11662 19.60258 198.92492 -3.10714 168.29186 5.85792 C 158.96126 8.52309 150.89054000000002 14.21465 143.38804000000002 20.156309999999998 C 131.33096 29.284019999999998 118.25953000000001 42.662099999999995 102.08864000000003 42.33998 C 85.69579000000003 41.295199999999994 73.54932000000002 28.74028 58.99143000000003 22.83121 C 53.119710000000026 20.331509999999998 46.44233000000003 18.760949999999998 40.02640000000003 20.483459999999997 C 26.787350000000032 24.083569999999998 16.29444000000003 34.997789999999995 8.38970000000003 46.95013 C 12.54074000000003 40.45376 17.26850000000003 34.2795 22.86825000000003 29.05593 Z M 25.58246 35.80534 C 57.79026 14.96284 79.54204 51.9063 110.89560999999999 45.381660000000004 C 116.0529 44.31683 120.9904 42.151920000000004 125.66081999999999 39.778510000000004 C 149.05441 26.876010000000004 164.93295999999998 12.219000000000005 193.9056 18.107180000000003 C 216.00275 22.651840000000004 234.04426 38.734320000000004 246.91613 57.24167 C 226.22127 29.02806 191.74016 11.83896 158.15848 24.55536 C 141.06511 30.94836 126.8025 43.94979 108.38565 46.87511 C 84.9901 50.23362 66.15104 30.05684 43.008790000000005 31.804299999999998 C 25.12968 33.91599 10.15003 47.11808 0.03043 61.61713 C 6.84076 51.84857 15.21845 42.14884000000001 25.58247 35.80534 Z M 43.0739 32.80728 C 66.65182 31.273149999999998 86.57289 51.6566 110.61842000000001 46.92355 C 116.43490000000001 45.89562 121.94748000000001 43.65868 127.23309000000002 41.134949999999996 C 137.81971000000001 36.073649999999994 147.66812000000002 29.622849999999996 158.54499 25.567939999999997 C 180.46074000000002 17.333639999999995 205.84789 22.25436 224.95508 36.30114999999999 C 234.31976 42.841269999999994 242.28588000000002 51.67193999999999 249.19050000000001 60.61798999999999 C 249.3463 60.856849999999994 249.50289 61.09551999999999 249.65699 61.33496999999999 C 249.609 61.28932999999999 249.55956 61.24544999999999 249.51157 61.199929999999995 C 228.41454000000002 32.837959999999995 191.30502 17.517249999999997 157.80451 28.923169999999992 C 140.2481 34.70366999999999 124.94679 47.02886999999999 106.04961 48.54444999999999 C 85.59943 50.07876999999999 68.20039 36.194959999999995 48.14096 35.18341999999999 C 29.169 34.57635 11.66894 46.96737 0.01208 61.64384 C 10.60216 48.0064 25.36169 34.704139999999995 43.073899999999995 32.80728 Z M 43.83952 36.24212 C 66.78509 35.2104 87.00104999999999 52.452200000000005 110.35637 48.47786 C 116.04108 47.6199 121.52969999999999 45.74811 126.81732 43.55323 C 137.40556999999998 39.17169 147.3776 33.48032 158.1526 29.94896 C 179.76791 22.857779999999998 204.2143 26.561 223.87359 38.71009 C 233.50894 44.57992 242.02963 52.27087 249.29183 60.99595 C 249.26042 60.96637 249.22856000000002 60.93757 249.19715 60.90806 C 230.75562 39.70825 201.61196 27.593899999999998 174.02372 29.98292 C 157.01498 30.9814 141.81083 39.24789 126.22416 45.20274 C 100.01078 55.46789 85.95399 46.970439999999996 61.203959999999995 40.39101 C 38.63463 33.97985 15.74528 44.34132 0.01424 61.64208 C 11.214929999999999 48.95095 26.58448 37.42939 43.83953 36.24213 Z M 249.49583 61.23579 C 249.52352000000002 61.269220000000004 249.55251 61.30155 249.58013000000003 61.33498 C 249.57105 61.32793 249.56165000000001 61.32133 249.55264000000003 61.31422 C 249.51979000000003 61.276019999999995 249.48597000000004 61.23873 249.45306000000002 61.20053 C 249.46716000000004 61.21241 249.48179000000002 61.223910000000004 249.49583 61.23579 Z M 60.96861 41.31688 C 85.34331 47.33638 100.7397 55.64928999999999 126.43735 45.79409 C 137.01528 42.050779999999996 147.09636 37.101589999999995 157.78203 34.06501 C 189.51139 24.92881 225.3562 36.02064 248.66443999999998 60.413489999999996 C 236.69459999999998 49.356719999999996 221.86154 41.63540999999999 206.35505999999998 37.61425 C 190.21484999999998 33.51539 173.18455999999998 33.20234 157.14980999999997 37.175309999999996 C 141.15612999999996 41.08069 126.38419999999998 49.08239999999999 109.87850999999998 50.98976999999999 C 93.24966999999998 53.17844999999999 77.50699999999998 46.73196999999999 61.555839999999975 43.449659999999994 C 39.65812 38.20572 16.78379 46.08211 0.01698 61.63979 C 16.58613 45.27789 38.083839999999995 35.11355999999999 60.968619999999994 41.316869999999994 Z M 221.11904 45.91018 C 200.47427000000002 38.606649999999995 178.06251 36.95988 156.85996 41.1962 C 146.24135 43.31704 136.05756 46.94229 125.60343 49.55437 C 115.18339 52.24951 104.30841000000001 53.58186 93.5925 52.2422 C 78.86712 50.62932 64.66028 45.716969999999996 49.78269 45.103809999999996 C 32.20558 44.63954 14.3153 50.80759 0.01992 61.6377 C 12.677420000000001 51.130160000000004 28.70074 43.33297 45.15144 42.83461 C 61.68409 42.4897 77.16517 49.04909 93.45505 51.13532 C 104.37521 52.72704 115.55161 51.20447 126.07357999999999 48.02828 C 136.63048999999998 44.92783 146.81193 40.758250000000004 157.41598 38.224270000000004 C 178.60907 33.243680000000005 201.43586 35.30176 221.7894 43.918510000000005 C 231.72022 47.992230000000006 241.09202 54.17289 249.26716 61.04695000000001 C 249.32533999999998 61.10892000000001 249.38495999999998 61.16945000000001 249.44294 61.23168000000001 C 240.89221 54.587080000000014 231.21187 49.52108000000001 221.11903999999998 45.910190000000014 Z M 249.90414 61.71593 C 249.81318000000002 61.60864 249.71778 61.50515 249.62623000000002 61.39832 C 249.63224000000002 61.402499999999996 249.63851000000003 61.406479999999995 249.64451000000003 61.41066 C 249.72953 61.5137 249.81951000000004 61.61263 249.90414 61.71593 Z M 249.66025 61.39531 C 249.64437999999998 61.37389 249.62767 61.35306 249.6118 61.33158 C 249.64236 61.357440000000004 249.67416 61.38251 249.70471999999998 61.408370000000005 C 249.71327 61.421690000000005 249.72214999999997 61.435010000000005 249.73076999999998 61.448330000000006 C 249.70758999999998 61.43018000000001 249.68343 61.41346000000001 249.66025 61.39531000000001 Z M 249.78752 61.50684 C 249.78856 61.507619999999996 249.78974 61.50821 249.79078 61.50899 C 249.81853 61.56084 249.84818 61.612809999999996 249.87586000000002 61.66466 C 249.84778000000003 61.612089999999995 249.81585 61.5594 249.78751000000003 61.50683 Z M 249.98328 61.63849 C 249.92732 61.59435 249.86855 61.55386 249.81246000000002 61.50985 C 249.80959000000001 61.50332 249.80665000000002 61.49672 249.80378000000002 61.4902 C 249.86268 61.540220000000005 249.92458000000002 61.58841 249.98329 61.638490000000004 Z" stroke-linecap="round" />
</g>
</g>
</g>
		<g transform="matrix(0.7393715367745525 0.15715827165347843 -0.1571582716534784 0.7393715367745521 6.963097028529944 46.758847200191326)"  >
<g style=""  paint-order="stroke"   >
		<g transform="matrix(1 0 0 1 0 0)"  >
<linearGradient id="SVGID_41_342766" gradientUnits="userSpaceOnUse" gradientTransform="matrix(1 0 0 1 0 4.6968171574235e-7)"  x1="125.00000000000003" y1="0" x2="124.99999999999997" y2="61.72166953031828">
<stop offset="0%" style="stop-color:rgb(107,103,103);stop-opacity: 1"/>
<stop offset="100%" style="stop-color:rgb(0,115,230);stop-opacity: 1"/>
</linearGradient>
<path style="stroke: none; stroke-width: 1; stroke-dasharray: none; stroke-linecap: butt; stroke-dashoffset: 0; stroke-linejoin: miter; stroke-miterlimit: 4; fill: url(#SVGID_41_342766); fill-rule: nonzero; opacity: 1;"  paint-order="stroke"  transform=" translate(-125, -30.860835234840856)" d="M 249.99706 61.65324 C 249.88449 61.481899999999996 249.76466 61.31578 249.65111000000002 61.145149999999994 C 249.6357 61.10988999999999 249.61957 61.074169999999995 249.60409 61.03883999999999 C 249.73436 61.24491999999999 249.87044 61.451789999999995 250 61.65767999999999 C 249.7915 61.27051999999999 249.57837 60.88493999999999 249.36536 60.49927999999999 C 236.81018 32.0476 212.68147 -2.07744 178.41695 0.09903 C 164.98599000000002 0.9549700000000001 153.45202 8.67726 143.60216000000003 17.21513 C 131.77421000000004 26.750899999999998 118.50441000000002 41.5246 102.15361000000003 41.19719 C 92.21776000000003 40.71287 83.65540000000003 35.01379 75.55373000000003 29.87511 C 70.09058000000003 26.36335 64.65812000000003 22.735219999999998 58.67277000000003 20.04596 C 52.702380000000026 17.357020000000002 45.82192000000003 15.80122 39.284280000000024 17.857020000000002 C 20.64647 23.85235 7.85243 44.70183 0.00098 61.65958 C 0.00085 61.65978 0.00078 61.660039999999995 0.00065 61.66023 C 0.0007199999999999999 61.66016 0.0007199999999999999 61.6601 0.00078 61.66003 C 0.0005200000000000001 61.66055 0.00026000000000000003 61.661139999999996 0 61.66166 C 0.00072 61.660219999999995 0.0015 61.65885 0.00222 61.657419999999995 C 0.00222 61.657349999999994 0.0022900000000000004 61.657349999999994 0.0022900000000000004 61.657289999999996 C 0.0026200000000000004 61.656699999999994 0.0030100000000000005 61.65618 0.0033300000000000005 61.65559 C 0.0038500000000000006 61.65481 0.0043100000000000005 61.654019999999996 0.004830000000000001 61.65324 C 0.005290000000000001 61.65259 0.005810000000000001 61.65193 0.006270000000000001 61.65128 C 0.007050000000000002 61.65024 0.0079 61.64926 0.008690000000000002 61.64821 C 0.009540000000000002 61.647169999999996 0.010520000000000002 61.646319999999996 0.011370000000000002 61.64527 C 0.012680000000000002 61.64396 0.013920000000000002 61.64279 0.015220000000000001 61.641479999999994 C 0.01653 61.64037 0.01803 61.63925999999999 0.01933 61.638149999999996 C 17.98692 49.38798 40.55121 43.12976 61.697739999999996 47.34609 C 77.54312 49.714079999999996 93.46288 54.39228 109.74726999999999 52.82459 C 115.13969999999999 52.33818 120.48864999999998 51.40898 125.75151999999999 50.164970000000004 C 136.28008999999997 47.681990000000006 146.54557 44.29527 157.08131999999998 42.25495 C 178.13786999999996 38.26781 200.28365999999997 39.83916 220.85091999999997 46.75697 C 230.98990999999998 50.070420000000006 240.82383 55.33265 249.55759999999998 61.35221 C 249.67336999999998 61.4768 249.79404999999997 61.59636 249.90917 61.721669999999996 C 249.90813 61.72042999999999 249.90695 61.71919 249.90590999999998 61.717949999999995 C 249.83910999999998 61.62678999999999 249.76792999999998 61.53941999999999 249.70081 61.44853 C 249.71838 61.460679999999996 249.73672 61.472229999999996 249.75429 61.48444 C 249.80189 61.55862 249.85126 61.63228 249.89873 61.70652 C 249.89919 61.70737 249.89971 61.708279999999995 249.90017 61.709129999999995 C 249.89991 61.70853999999999 249.89958000000001 61.70802 249.89932 61.707429999999995 L 249.90265 61.71252 C 249.90095 61.70932 249.89899 61.70612 249.8973 61.70292 C 249.89521 61.69828 249.89299 61.69345 249.8909 61.68882 C 249.89358 61.69444 249.89645 61.70005 249.89912999999999 61.70567 C 249.87392 61.64729 249.8465 61.587869999999995 249.82116 61.529489999999996 C 249.87464 61.566509999999994 249.9304 61.60178 249.98375 61.63887 C 249.98538 61.64024 249.98708 61.641549999999995 249.98871 61.64292 C 249.92335 61.580099999999995 249.85504 61.52068 249.78955 61.458059999999996 C 249.76585 61.40354 249.74051 61.348029999999994 249.71674 61.29344 C 249.80867999999998 61.41359 249.90552 61.533089999999994 249.99706999999998 61.65324 Z M 32.10554 27.14556 C 58.224109999999996 13.32124 78.73691 44.66847 104.37728999999999 43.8521 C 113.11954999999999 43.5036 121.14599999999999 39.22099 128.33101 34.53665 C 141.37082999999998 26.106650000000002 153.01058999999998 14.90107 168.22068 10.702300000000001 C 200.65440999999998 2.0167900000000003 227.7731 25.830640000000002 244.5561 52.506460000000004 C 225.40359999999998 23.226520000000004 193.38809999999998 1.4138200000000012 158.79063 16.641410000000008 C 142.72996 23.81349000000001 130.20076999999998 37.47607000000001 113.23244 43.02313000000001 C 84.98344 52.59977000000001 63.57291 17.38712000000001 35.795429999999996 27.24533000000001 C 23.353809999999996 31.92326000000001 13.472549999999995 41.59772000000001 5.808309999999995 52.50829000000001 C 12.738719999999995 42.34233000000001 21.192029999999995 32.81518000000001 32.105529999999995 27.14556000000001 Z M 7.42081 49.34823 C 11.99041 42.47091 17.23592 35.9524 23.50257 30.655170000000002 C 34.32825 21.35461 45.57987 17.845980000000004 58.61159 23.712220000000002 C 72.52616 29.181310000000003 84.35658000000001 40.35869 99.66828000000001 42.48364 C 103.63896000000001 43.08249 107.78987000000001 42.57767 111.64014 41.49325 C 130.1898 35.33493 142.74877 18.931110000000004 159.82503 10.405840000000005 C 171.06659 4.613320000000005 184.53902 3.525510000000005 196.72631 7.468250000000005 C 215.91185000000002 13.902590000000004 230.17981 29.221860000000003 241.0689 46.278470000000006 C 224.51104 21.53875 198.10673 1.1679 167.90073 9.60541 C 151.00613 14.312079999999998 138.76190000000003 27.674799999999998 124.02568000000001 36.52611 C 114.29480000000001 42.542010000000005 104.02286000000001 45.60237 92.86899000000001 41.794740000000004 C 79.36842000000001 37.56515 68.42612000000001 27.909230000000004 54.86730000000001 23.946650000000005 C 35.72943000000001 17.819540000000003 18.658780000000007 33.10159 7.42081000000001 49.348240000000004 Z M 24.87012 34.02118 C 28.63694 31.37998 32.81416 29.15688 37.180170000000004 27.83445 C 44.53790000000001 25.34455 52.260510000000004 26.50745 59.33426 29.12456 C 85.75176 39.31958 99.11142000000001 54.74823 127.99075 36.65716 C 138.54021 30.372359999999997 148.14892 22.593519999999998 159.23827 17.629509999999996 C 181.86577 7.1188299999999956 208.90263 15.168989999999997 226.77548000000002 32.39995 C 233.26153000000002 38.22094 238.84059000000002 45.160489999999996 243.84195000000003 52.340019999999996 C 242.39193000000003 50.375769999999996 240.88673000000003 48.4522 239.40451000000002 46.606139999999996 C 223.90665 27.521159999999995 200.68414 13.338999999999999 176.01423000000003 15.885189999999998 C 156.72219 17.1973 141.64805 30.35812 125.37874000000002 39.241299999999995 C 115.16981000000003 44.7467 104.51855000000002 47.741099999999996 93.08461000000003 44.48224 C 79.98007000000003 41.10734 68.76156000000003 33.004819999999995 55.705870000000026 29.623979999999996 C 35.731190000000026 23.778369999999995 17.164810000000024 38.07930999999999 5.101070000000028 54.16421 C 10.638530000000028 46.54052 17.11858000000003 39.33435 24.87012000000003 34.02119 Z M 249.12023 60.28249 C 249.19689 60.42269 249.27401 60.56288 249.35014999999999 60.70308 C 249.32676999999998 60.66841 249.30293999999998 60.63399 249.27955999999998 60.59939 C 249.17755999999997 60.41851 249.08058999999997 60.23783 248.97591999999997 60.05695 C 249.02390999999997 60.13217 249.07242999999997 60.20733 249.12022999999996 60.28249 Z M 249.56975 61.1048 C 249.62414 61.205819999999996 249.68128 61.30677 249.73541 61.40779 C 249.73312 61.40564 249.73077 61.40341 249.72842 61.40126 C 249.66893 61.29143 249.60435 61.181400000000004 249.54382 61.0715 C 249.55237000000002 61.0826 249.56119 61.0937 249.56974000000002 61.1048 Z M 249.76127 61.45506 C 249.76617 61.464270000000006 249.77139 61.473470000000006 249.77635 61.48268 C 249.77504000000002 61.481570000000005 249.77354 61.48066 249.77224 61.47955 C 249.76708000000002 61.469950000000004 249.76134000000002 61.460480000000004 249.75618 61.450880000000005 C 249.75781 61.45232000000001 249.75964 61.45362000000001 249.76127 61.45506 Z M 22.86826 29.05594 C 33.4697 19.08502 44.89606 14.56916 58.2742 20.919069999999998 C 75.39787 27.913079999999997 91.49635 46.70971 111.9022 40.16345 C 124.47233 35.73026 134.03244999999998 25.99729 144.16765999999998 17.894239999999996 C 149.22406999999998 13.784009999999997 154.37717999999998 9.747379999999996 160.09949999999998 6.733389999999996 C 178.12050999999997 -3.151010000000003 198.80569999999997 0.8028299999999966 214.74366999999998 13.754499999999997 C 225.52494 22.375759999999996 234.05660999999998 33.39067 241.13583999999997 45.26340999999999 C 225.11662 19.60258 198.92492 -3.10714 168.29186 5.85792 C 158.96126 8.52309 150.89054000000002 14.21465 143.38804000000002 20.156309999999998 C 131.33096 29.284019999999998 118.25953000000001 42.662099999999995 102.08864000000003 42.33998 C 85.69579000000003 41.295199999999994 73.54932000000002 28.74028 58.99143000000003 22.83121 C 53.119710000000026 20.331509999999998 46.44233000000003 18.760949999999998 40.02640000000003 20.483459999999997 C 26.787350000000032 24.083569999999998 16.29444000000003 34.997789999999995 8.38970000000003 46.95013 C 12.54074000000003 40.45376 17.26850000000003 34.2795 22.86825000000003 29.05593 Z M 25.58246 35.80534 C 57.79026 14.96284 79.54204 51.9063 110.89560999999999 45.381660000000004 C 116.0529 44.31683 120.9904 42.151920000000004 125.66081999999999 39.778510000000004 C 149.05441 26.876010000000004 164.93295999999998 12.219000000000005 193.9056 18.107180000000003 C 216.00275 22.651840000000004 234.04426 38.734320000000004 246.91613 57.24167 C 226.22127 29.02806 191.74016 11.83896 158.15848 24.55536 C 141.06511 30.94836 126.8025 43.94979 108.38565 46.87511 C 84.9901 50.23362 66.15104 30.05684 43.008790000000005 31.804299999999998 C 25.12968 33.91599 10.15003 47.11808 0.03043 61.61713 C 6.84076 51.84857 15.21845 42.14884000000001 25.58247 35.80534 Z M 43.0739 32.80728 C 66.65182 31.273149999999998 86.57289 51.6566 110.61842000000001 46.92355 C 116.43490000000001 45.89562 121.94748000000001 43.65868 127.23309000000002 41.134949999999996 C 137.81971000000001 36.073649999999994 147.66812000000002 29.622849999999996 158.54499 25.567939999999997 C 180.46074000000002 17.333639999999995 205.84789 22.25436 224.95508 36.30114999999999 C 234.31976 42.841269999999994 242.28588000000002 51.67193999999999 249.19050000000001 60.61798999999999 C 249.3463 60.856849999999994 249.50289 61.09551999999999 249.65699 61.33496999999999 C 249.609 61.28932999999999 249.55956 61.24544999999999 249.51157 61.199929999999995 C 228.41454000000002 32.837959999999995 191.30502 17.517249999999997 157.80451 28.923169999999992 C 140.2481 34.70366999999999 124.94679 47.02886999999999 106.04961 48.54444999999999 C 85.59943 50.07876999999999 68.20039 36.194959999999995 48.14096 35.18341999999999 C 29.169 34.57635 11.66894 46.96737 0.01208 61.64384 C 10.60216 48.0064 25.36169 34.704139999999995 43.073899999999995 32.80728 Z M 43.83952 36.24212 C 66.78509 35.2104 87.00104999999999 52.452200000000005 110.35637 48.47786 C 116.04108 47.6199 121.52969999999999 45.74811 126.81732 43.55323 C 137.40556999999998 39.17169 147.3776 33.48032 158.1526 29.94896 C 179.76791 22.857779999999998 204.2143 26.561 223.87359 38.71009 C 233.50894 44.57992 242.02963 52.27087 249.29183 60.99595 C 249.26042 60.96637 249.22856000000002 60.93757 249.19715 60.90806 C 230.75562 39.70825 201.61196 27.593899999999998 174.02372 29.98292 C 157.01498 30.9814 141.81083 39.24789 126.22416 45.20274 C 100.01078 55.46789 85.95399 46.970439999999996 61.203959999999995 40.39101 C 38.63463 33.97985 15.74528 44.34132 0.01424 61.64208 C 11.214929999999999 48.95095 26.58448 37.42939 43.83953 36.24213 Z M 249.49583 61.23579 C 249.52352000000002 61.269220000000004 249.55251 61.30155 249.58013000000003 61.33498 C 249.57105 61.32793 249.56165000000001 61.32133 249.55264000000003 61.31422 C 249.51979000000003 61.276019999999995 249.48597000000004 61.23873 249.45306000000002 61.20053 C 249.46716000000004 61.21241 249.48179000000002 61.223910000000004 249.49583 61.23579 Z M 60.96861 41.31688 C 85.34331 47.33638 100.7397 55.64928999999999 126.43735 45.79409 C 137.01528 42.050779999999996 147.09636 37.101589999999995 157.78203 34.06501 C 189.51139 24.92881 225.3562 36.02064 248.66443999999998 60.413489999999996 C 236.69459999999998 49.356719999999996 221.86154 41.63540999999999 206.35505999999998 37.61425 C 190.21484999999998 33.51539 173.18455999999998 33.20234 157.14980999999997 37.175309999999996 C 141.15612999999996 41.08069 126.38419999999998 49.08239999999999 109.87850999999998 50.98976999999999 C 93.24966999999998 53.17844999999999 77.50699999999998 46.73196999999999 61.555839999999975 43.449659999999994 C 39.65812 38.20572 16.78379 46.08211 0.01698 61.63979 C 16.58613 45.27789 38.083839999999995 35.11355999999999 60.968619999999994 41.316869999999994 Z M 221.11904 45.91018 C 200.47427000000002 38.606649999999995 178.06251 36.95988 156.85996 41.1962 C 146.24135 43.31704 136.05756 46.94229 125.60343 49.55437 C 115.18339 52.24951 104.30841000000001 53.58186 93.5925 52.2422 C 78.86712 50.62932 64.66028 45.716969999999996 49.78269 45.103809999999996 C 32.20558 44.63954 14.3153 50.80759 0.01992 61.6377 C 12.677420000000001 51.130160000000004 28.70074 43.33297 45.15144 42.83461 C 61.68409 42.4897 77.16517 49.04909 93.45505 51.13532 C 104.37521 52.72704 115.55161 51.20447 126.07357999999999 48.02828 C 136.63048999999998 44.92783 146.81193 40.758250000000004 157.41598 38.224270000000004 C 178.60907 33.243680000000005 201.43586 35.30176 221.7894 43.918510000000005 C 231.72022 47.992230000000006 241.09202 54.17289 249.26716 61.04695000000001 C 249.32533999999998 61.10892000000001 249.38495999999998 61.16945000000001 249.44294 61.23168000000001 C 240.89221 54.587080000000014 231.21187 49.52108000000001 221.11903999999998 45.910190000000014 Z M 249.90414 61.71593 C 249.81318000000002 61.60864 249.71778 61.50515 249.62623000000002 61.39832 C 249.63224000000002 61.402499999999996 249.63851000000003 61.406479999999995 249.64451000000003 61.41066 C 249.72953 61.5137 249.81951000000004 61.61263 249.90414 61.71593 Z M 249.66025 61.39531 C 249.64437999999998 61.37389 249.62767 61.35306 249.6118 61.33158 C 249.64236 61.357440000000004 249.67416 61.38251 249.70471999999998 61.408370000000005 C 249.71327 61.421690000000005 249.72214999999997 61.435010000000005 249.73076999999998 61.448330000000006 C 249.70758999999998 61.43018000000001 249.68343 61.41346000000001 249.66025 61.39531000000001 Z M 249.78752 61.50684 C 249.78856 61.507619999999996 249.78974 61.50821 249.79078 61.50899 C 249.81853 61.56084 249.84818 61.612809999999996 249.87586000000002 61.66466 C 249.84778000000003 61.612089999999995 249.81585 61.5594 249.78751000000003 61.50683 Z M 249.98328 61.63849 C 249.92732 61.59435 249.86855 61.55386 249.81246000000002 61.50985 C 249.80959000000001 61.50332 249.80665000000002 61.49672 249.80378000000002 61.4902 C 249.86268 61.540220000000005 249.92458000000002 61.58841 249.98329 61.638490000000004 Z" stroke-linecap="round" />
</g>
</g>
</g>
</g>
</g>
<g transform="matrix(1.9211538461538462 0 0 1.9211538461538462 640.2680009615384 676.7064250056119)" id="text-logo"  >
<g style=""  paint-order="stroke"   >
		<g transform="matrix(1 0 0 1 0 0)" id="text-logo-path-0"  >
<radialGradient id="SVGID_342767" gradientUnits="userSpaceOnUse" gradientTransform="matrix(1 0 0 1 -0.12000000000000455 -44.02)"  cx="169.3375" cy="24.543319999999937" r="169.29099526977535" fx="169.3375" fy="24.543319999999937">
<stop offset="20%" style="stop-color:rgb(162,171,180);stop-opacity: 1"/>
<stop offset="100%" style="stop-color:rgb(0,115,230);stop-opacity: 1"/>
</radialGradient>
<path style="stroke: rgb(255,255,255); stroke-width: 0; stroke-dasharray: none; stroke-linecap: butt; stroke-dashoffset: 0; stroke-linejoin: miter; stroke-miterlimit: 4; fill: url(#SVGID_342767); fill-rule: nonzero; opacity: 1;"  paint-order="stroke"  transform=" translate(-169.355, 21.700000000000003)" d="M 31.5 -43.4 L 15 -43.4 L -0.12 0 L 12.28 0 L 23.25 -31.5 L 30.32 -11.16 L 21.51 -11.16 L 17.61 0 L 46.62 0 Z M 58.53 -21.89 L 58.53 -21.89 C 58.53 -23.5 58.96 -24.61 59.77 -25.3 C 60.57 -25.98 61.57 -26.29 62.74 -26.29 L 62.74 -26.29 C 63.92 -26.29 64.91 -25.98 65.78 -25.3 C 66.59 -24.61 67.02 -23.5 67.02 -21.89 L 67.02 -21.89 C 67.02 -20.27 66.59 -19.1 65.78 -18.41 C 64.91 -17.73 63.92 -17.36 62.74 -17.36 L 62.74 -17.36 C 61.57 -17.36 60.51 -17.73 59.77 -18.41 C 58.96 -19.1 58.53 -20.27 58.53 -21.89 Z M 95.36 -43.4 L 82.96 -43.4 L 82.96 0 L 95.36 0 Z M 110.42 -21.89 L 110.42 -21.89 C 110.42 -23.5 110.86 -24.61 111.66 -25.3 C 112.47 -25.98 113.46 -26.29 114.64 -26.29 L 114.64 -26.29 C 115.82 -26.29 116.81 -25.98 117.68 -25.3 C 118.48 -24.61 118.92 -23.5 118.92 -21.89 L 118.92 -21.89 C 118.92 -20.27 118.48 -19.1 117.68 -18.41 C 116.81 -17.73 115.82 -17.36 114.64 -17.36 L 114.64 -17.36 C 113.46 -17.36 112.41 -17.73 111.66 -18.41 C 110.86 -19.1 110.42 -20.27 110.42 -21.89 Z M 146.75 -9.92 L 154.13 -9.92 C 165.73 -9.92 171.62 -15.5 171.62 -26.6 C 171.62 -37.76 165.73 -43.4 154.13 -43.4 L 134.35 -43.4 L 134.35 -32.24 L 152.83 -32.24 C 156.74 -32.24 158.84 -30.44 158.84 -26.66 C 158.84 -23.06 156.74 -21.08 152.83 -21.08 L 134.35 -21.08 L 134.35 0 L 146.75 0 Z M 184.82 -21.89 L 184.82 -21.89 C 184.82 -23.5 185.26 -24.61 186.06 -25.3 C 186.87 -25.98 187.86 -26.29 189.04 -26.29 L 189.04 -26.29 C 190.22 -26.29 191.21 -25.98 192.08 -25.3 C 192.88 -24.61 193.32 -23.5 193.32 -21.89 L 193.32 -21.89 C 193.32 -20.27 192.88 -19.1 192.08 -18.41 C 191.21 -17.73 190.22 -17.36 189.04 -17.36 L 189.04 -17.36 C 187.86 -17.36 186.81 -17.73 186.06 -18.41 C 185.26 -19.1 184.82 -20.27 184.82 -21.89 Z M 230.95 0.62 C 246.39 0.62 254.2 -6.88 254.2 -21.7 C 254.2 -36.52 246.33 -44.02 230.95 -44.02 C 215.57 -44.02 207.7 -36.52 207.7 -21.7 C 207.7 -6.94 215.51 0.62 230.95 0.62 Z M 230.95 -11.28 C 223.76 -11.28 220.1 -14.82 220.1 -21.7 C 220.1 -28.64 223.76 -32.12 230.95 -32.12 C 238.14 -32.12 241.8 -28.64 241.8 -21.7 C 241.8 -14.82 238.14 -11.28 230.95 -11.28 Z M 267.72 -21.89 L 267.72 -21.89 C 267.72 -23.5 268.15 -24.61 268.96 -25.3 C 269.76 -25.98 270.75 -26.29 271.93 -26.29 L 271.93 -26.29 C 273.11 -26.29 274.1 -25.98 274.97 -25.3 C 275.78 -24.61 276.21 -23.5 276.21 -21.89 L 276.21 -21.89 C 276.21 -20.27 275.78 -19.1 274.97 -18.41 C 274.1 -17.73 273.11 -17.36 271.93 -17.36 L 271.93 -17.36 C 270.75 -17.36 269.7 -17.73 268.96 -18.41 C 268.15 -19.1 267.72 -20.27 267.72 -21.89 Z M 303.68 -43.4 L 289.42 -43.4 L 306.34 -22.07 L 288.8 0 L 303.06 0 L 313.47 -13.14 L 323.95 0 L 338.21 0 Z M 324.57 -43.4 L 315.77 -32.36 L 330.03 -32.36 L 338.83 -43.4 Z" stroke-linecap="round" />
</g>
</g>
</g>
<g transform="matrix(1.9211538461538462 0 0 1.9211538461538462 640.0456274038461 767.6575841127573)" id="tagline-5bd2ead9-6ec7-484f-8600-589500df255a-logo"  >
<g style=""  paint-order="stroke"   >
		<g transform="matrix(1 0 0 1 0 0)" id="tagline-5bd2ead9-6ec7-484f-8600-589500df255a-logo-path-0"  >
<path style="stroke: none; stroke-width: 0; stroke-dasharray: none; stroke-linecap: butt; stroke-dashoffset: 0; stroke-linejoin: miter; stroke-miterlimit: 4; fill: rgb(0,115,230); fill-opacity: 0.9019607843137255; fill-rule: nonzero; opacity: 1;"  paint-order="stroke"  transform=" translate(-166.85500000000002, 6.11)" d="M 3.53 -4.58 L 4.58 -8.89 L 5.62 -4.58 Z M 3.31 -12.22 L 0.34 0 L 2.43 0 L 3.1 -2.72 L 6.06 -2.72 L 6.73 0 L 8.82 0 L 5.85 -12.22 Z M 13.57 -12.22 L 13.57 0 L 19.66 0 L 19.66 -1.88 L 15.6 -1.88 L 15.6 -12.22 Z M 24.74 -12.22 L 24.74 0 L 30.84 0 L 30.84 -1.88 L 26.77 -1.88 L 26.77 -12.22 Z M 35.91 -6.78 L 35.91 -5.43 L 39.98 -5.43 L 39.98 -6.78 Z M 49.46 -10.34 C 49.68 -10.34 49.8 -10.22 49.8 -9.99 L 49.8 -7.39 C 49.8 -7.16 49.68 -7.05 49.46 -7.05 L 47.08 -7.05 L 47.08 -10.34 Z M 45.05 -12.22 L 45.05 0 L 47.08 0 L 47.08 -5.17 L 47.46 -5.17 L 49.91 0 L 52.17 0 L 49.72 -5.17 L 50.46 -5.17 C 50.84 -5.17 51.17 -5.3 51.43 -5.57 C 51.7 -5.83 51.83 -6.16 51.83 -6.54 L 51.83 -10.85 C 51.83 -11.23 51.7 -11.55 51.42 -11.82 C 51.15 -12.08 50.83 -12.22 50.46 -12.22 Z M 61.31 -10.34 C 61.54 -10.34 61.65 -10.22 61.65 -9.99 L 61.65 -2.2 C 61.65 -1.99 61.54 -1.88 61.31 -1.88 L 59.28 -1.88 C 59.05 -1.87 58.94 -1.98 58.94 -2.2 L 58.94 -9.99 C 58.94 -10.22 59.05 -10.34 59.28 -10.34 Z M 58.25 -12.22 C 57.87 -12.22 57.55 -12.08 57.29 -11.82 C 57.03 -11.55 56.9 -11.23 56.9 -10.85 L 56.9 -1.35 C 56.9 -0.97 57.03 -0.65 57.29 -0.39 C 57.55 -0.13 57.87 0 58.25 0 L 62.32 0 C 62.7 0 63.02 -0.13 63.29 -0.39 C 63.55 -0.65 63.69 -0.97 63.69 -1.35 L 63.69 -10.85 C 63.69 -11.23 63.55 -11.55 63.29 -11.82 C 63.02 -12.08 62.7 -12.22 62.32 -12.22 Z M 68.76 -12.22 L 68.76 -1.35 C 68.76 -0.97 68.89 -0.65 69.15 -0.39 C 69.41 -0.13 69.73 0 70.11 0 L 74.18 0 C 74.56 0 74.88 -0.13 75.14 -0.39 C 75.41 -0.65 75.54 -0.97 75.54 -1.35 L 75.54 -12.22 L 73.51 -12.22 L 73.51 -2.2 C 73.51 -1.99 73.4 -1.88 73.17 -1.88 L 71.14 -1.88 C 70.91 -1.87 70.79 -1.98 70.79 -2.2 L 70.79 -12.22 Z M 80.62 -12.22 L 80.62 0 L 82.65 0 L 82.65 -7.16 L 85.52 0 L 87.74 0 L 87.74 -12.22 L 85.71 -12.22 L 85.71 -5.05 L 82.8 -12.22 Z M 97.22 -10.34 C 97.45 -10.34 97.57 -10.22 97.57 -9.99 L 97.57 -2.2 C 97.57 -1.99 97.45 -1.88 97.22 -1.88 L 94.85 -1.88 L 94.85 -10.34 Z M 92.82 -12.22 L 92.82 0 L 98.23 0 C 98.61 0 98.93 -0.13 99.2 -0.39 C 99.47 -0.65 99.6 -0.97 99.6 -1.35 L 99.6 -10.85 C 99.6 -11.23 99.47 -11.55 99.2 -11.82 C 98.93 -12.08 98.61 -12.22 98.23 -12.22 Z M 113.81 -12.22 L 113.81 0 L 115.86 0 L 115.86 -12.22 Z M 121.62 -12.22 L 121.62 -10.34 L 123.8 -10.34 L 123.8 0 L 125.86 0 L 125.86 -10.34 L 128.04 -10.34 L 128.04 -12.22 Z M 133.8 -2.03 L 133.8 0 L 135.85 0 L 135.85 -2.03 Z M 149.74 -12.22 L 152.7 0 L 155.25 0 L 158.21 -12.22 L 156.12 -12.22 L 153.98 -3.32 L 151.83 -12.22 Z M 167.37 -10.34 C 167.6 -10.34 167.71 -10.22 167.71 -9.99 L 167.71 -2.2 C 167.71 -1.99 167.6 -1.88 167.37 -1.88 L 165.34 -1.88 C 165.11 -1.87 165 -1.98 165 -2.2 L 165 -9.99 C 165 -10.22 165.11 -10.34 165.34 -10.34 Z M 164.31 -12.22 C 163.93 -12.22 163.61 -12.08 163.35 -11.82 C 163.09 -11.55 162.96 -11.23 162.96 -10.85 L 162.96 -1.35 C 162.96 -0.97 163.09 -0.65 163.35 -0.39 C 163.61 -0.13 163.93 0 164.31 0 L 168.38 0 C 168.76 0 169.08 -0.13 169.35 -0.39 C 169.61 -0.65 169.75 -0.97 169.75 -1.35 L 169.75 -10.85 C 169.75 -11.23 169.61 -11.55 169.35 -11.82 C 169.08 -12.08 168.76 -12.22 168.38 -12.22 Z M 174.82 -12.22 L 174.82 0 L 180.92 0 L 180.92 -1.88 L 176.85 -1.88 L 176.85 -12.22 Z M 187.34 -12.22 C 186.96 -12.22 186.64 -12.08 186.38 -11.82 C 186.12 -11.55 185.99 -11.23 185.99 -10.85 L 185.99 -1.35 C 185.99 -0.97 186.12 -0.65 186.38 -0.39 C 186.64 -0.13 186.96 0 187.34 0 L 189.89 0 C 190.09 0 190.28 -0.06 190.46 -0.17 C 190.63 -0.28 190.75 -0.43 190.8 -0.61 L 190.82 -0.61 L 191.01 0 L 192.77 0 L 192.77 -7.05 L 189.37 -7.05 L 189.37 -5.17 L 190.74 -5.17 L 190.74 -2.2 C 190.74 -1.99 190.63 -1.88 190.4 -1.88 L 188.37 -1.88 C 188.14 -1.87 188.02 -1.98 188.02 -2.2 L 188.02 -9.99 C 188.02 -10.22 188.14 -10.34 188.37 -10.34 L 192.43 -10.34 L 192.43 -12.22 Z M 197.85 -12.22 L 197.85 0 L 203.95 0 L 203.95 -1.88 L 199.88 -1.88 L 199.88 -5.17 L 203.26 -5.17 L 203.26 -7.05 L 199.88 -7.05 L 199.88 -10.34 L 203.6 -10.34 L 203.6 -12.22 Z M 209.02 -12.22 L 209.02 0 L 211.05 0 L 211.05 -7.16 L 213.92 0 L 216.14 0 L 216.14 -12.22 L 214.11 -12.22 L 214.11 -5.05 L 211.2 -12.22 Z M 222.57 -12.22 C 222.19 -12.22 221.87 -12.08 221.61 -11.82 C 221.35 -11.55 221.22 -11.23 221.22 -10.85 L 221.22 -6.54 C 221.22 -6.16 221.35 -5.83 221.61 -5.57 C 221.87 -5.3 222.19 -5.17 222.57 -5.17 L 225.28 -5.17 C 225.51 -5.17 225.62 -5.05 225.62 -4.83 L 225.62 -2.2 C 225.62 -2.12 225.59 -2.04 225.52 -1.98 C 225.45 -1.91 225.37 -1.88 225.26 -1.88 L 221.22 -1.88 L 221.22 0 L 226.31 0 C 226.69 0 227.01 -0.13 227.27 -0.39 C 227.53 -0.65 227.66 -0.97 227.66 -1.35 L 227.66 -5.68 C 227.66 -6.06 227.53 -6.38 227.27 -6.65 C 227.01 -6.92 226.69 -7.05 226.31 -7.05 L 223.59 -7.05 C 223.36 -7.05 223.25 -7.16 223.25 -7.39 L 223.25 -9.99 C 223.25 -10.22 223.36 -10.34 223.59 -10.34 L 227.32 -10.34 L 227.32 -12.22 Z M 244.05 -4.58 L 245.1 -8.89 L 246.14 -4.58 Z M 243.83 -12.22 L 240.86 0 L 242.95 0 L 243.62 -2.72 L 246.58 -2.72 L 247.25 0 L 249.34 0 L 246.37 -12.22 Z M 254.09 -12.22 L 254.09 0 L 256.12 0 L 256.12 -5.17 L 259.5 -5.17 L 259.5 -7.05 L 256.12 -7.05 L 256.12 -10.34 L 259.84 -10.34 L 259.84 -12.22 Z M 266.61 -12.22 C 266.23 -12.22 265.91 -12.08 265.65 -11.82 C 265.39 -11.55 265.26 -11.23 265.26 -10.85 L 265.26 -6.54 C 265.26 -6.16 265.39 -5.83 265.65 -5.57 C 265.91 -5.3 266.23 -5.17 266.61 -5.17 L 269.32 -5.17 C 269.55 -5.17 269.67 -5.05 269.67 -4.83 L 269.67 -2.2 C 269.67 -2.12 269.63 -2.04 269.56 -1.98 C 269.49 -1.91 269.41 -1.88 269.31 -1.88 L 265.26 -1.88 L 265.26 0 L 270.35 0 C 270.73 0 271.05 -0.13 271.31 -0.39 C 271.57 -0.65 271.7 -0.97 271.7 -1.35 L 271.7 -5.68 C 271.7 -6.06 271.57 -6.38 271.31 -6.65 C 271.05 -6.92 270.73 -7.05 270.35 -7.05 L 267.63 -7.05 C 267.41 -7.05 267.29 -7.16 267.29 -7.39 L 267.29 -9.99 C 267.29 -10.22 267.41 -10.34 267.63 -10.34 L 271.36 -10.34 L 271.36 -12.22 Z M 281.18 -10.34 C 281.41 -10.34 281.52 -10.22 281.52 -9.99 L 281.52 -6.63 C 281.52 -6.4 281.41 -6.29 281.18 -6.29 L 278.81 -6.29 L 278.81 -10.34 Z M 276.77 -12.22 L 276.77 0 L 278.81 0 L 278.81 -4.41 L 282.19 -4.41 C 282.57 -4.41 282.89 -4.54 283.16 -4.81 C 283.42 -5.07 283.56 -5.4 283.56 -5.78 L 283.56 -10.85 C 283.56 -11.23 283.42 -11.55 283.16 -11.82 C 282.89 -12.08 282.57 -12.22 282.19 -12.22 Z M 293.04 -10.34 C 293.26 -10.34 293.38 -10.22 293.38 -9.99 L 293.38 -7.39 C 293.38 -7.16 293.26 -7.05 293.04 -7.05 L 290.66 -7.05 L 290.66 -10.34 Z M 288.63 -12.22 L 288.63 0 L 290.66 0 L 290.66 -5.17 L 291.04 -5.17 L 293.49 0 L 295.75 0 L 293.3 -5.17 L 294.04 -5.17 C 294.42 -5.17 294.75 -5.3 295.01 -5.57 C 295.28 -5.83 295.41 -6.16 295.41 -6.54 L 295.41 -10.85 C 295.41 -11.23 295.28 -11.55 295 -11.82 C 294.73 -12.08 294.41 -12.22 294.04 -12.22 Z M 303.33 -4.58 L 304.38 -8.89 L 305.42 -4.58 Z M 303.11 -12.22 L 300.14 0 L 302.23 0 L 302.9 -2.72 L 305.86 -2.72 L 306.53 0 L 308.62 0 L 305.65 -12.22 Z M 316.22 -4.58 L 317.26 -8.89 L 318.31 -4.58 Z M 315.99 -12.22 L 313.02 0 L 315.11 0 L 315.78 -2.72 L 318.74 -2.72 L 319.41 0 L 321.5 0 L 318.53 -12.22 Z M 326.25 -12.22 L 326.25 0 L 328.28 0 L 328.28 -5.17 L 328.66 -5.17 L 331.11 0 L 333.37 0 L 330.49 -6.1 L 333.37 -12.22 L 331.11 -12.22 L 328.66 -7.05 L 328.28 -7.05 L 328.28 -12.22 Z" stroke-linecap="round" />
</g>
</g>
</g>
</svg>